<svg id="svg" version="1.1" width="400" height="83.33333333333334" viewBox="0 0 400 83.33333333333334" xmlns="http://www.w3.org/2000/svg" xmlns:xlink="http://www.w3.org/1999/xlink" ><g id="svgg"><path id="path0" d="M77.750 0.996 C 69.660 1.066,66.942 1.140,66.500 1.303 C 66.134 1.438,65.141 1.514,63.833 1.508 C 61.823 1.500,58.476 1.664,53.583 2.011 C 50.763 2.211,48.285 2.580,46.858 3.012 C 46.275 3.189,44.925 3.446,43.858 3.584 C 41.348 3.908,40.276 4.130,39.250 4.536 C 38.792 4.718,37.472 5.039,36.318 5.250 C 34.800 5.528,33.970 5.773,33.318 6.136 C 32.822 6.412,31.799 6.803,31.043 7.004 C 30.288 7.205,29.326 7.597,28.906 7.875 C 28.451 8.177,27.599 8.508,26.803 8.693 C 25.954 8.891,25.209 9.188,24.768 9.505 C 24.386 9.780,23.666 10.159,23.170 10.348 C 22.673 10.536,22.028 10.900,21.736 11.157 C 21.444 11.413,20.678 11.824,20.033 12.071 C 19.389 12.317,18.823 12.621,18.774 12.746 C 18.726 12.872,18.058 13.273,17.289 13.638 C 16.467 14.029,15.776 14.479,15.610 14.732 C 15.455 14.969,15.048 15.305,14.706 15.480 C 14.363 15.655,13.933 15.964,13.750 16.167 C 13.567 16.370,13.132 16.681,12.785 16.858 C 12.438 17.035,11.725 17.642,11.202 18.207 C 10.678 18.772,9.585 19.874,8.772 20.657 C 7.719 21.671,7.182 22.332,6.905 22.959 C 6.691 23.442,6.397 23.883,6.251 23.939 C 6.105 23.995,5.831 24.351,5.642 24.729 C 5.452 25.107,4.996 25.778,4.629 26.220 C 4.261 26.662,3.859 27.359,3.736 27.770 C 3.612 28.180,3.282 28.946,3.001 29.472 C 2.721 29.998,2.278 31.288,2.017 32.339 C 1.358 34.995,1.133 35.482,0.507 35.607 L 0.000 35.708 0.000 55.854 L 0.000 76.000 12.958 75.999 C 27.733 75.997,27.574 76.005,27.832 75.269 C 27.959 74.908,28.013 70.147,28.009 59.583 C 28.003 41.732,28.037 41.025,28.990 39.127 C 29.362 38.386,29.667 37.676,29.667 37.550 C 29.667 36.295,33.571 32.429,36.028 31.252 C 36.700 30.930,37.508 30.476,37.823 30.245 C 38.139 30.013,38.589 29.779,38.823 29.724 C 39.058 29.670,39.775 29.340,40.417 28.993 C 41.270 28.530,42.128 28.245,43.615 27.933 C 44.732 27.698,45.945 27.350,46.311 27.159 C 46.676 26.968,47.675 26.705,48.530 26.573 C 49.384 26.441,50.758 26.229,51.583 26.101 C 52.408 25.974,53.608 25.712,54.250 25.519 C 56.515 24.840,57.671 24.792,73.781 24.716 C 87.678 24.650,89.336 24.615,89.531 24.379 C 89.912 23.920,89.918 2.854,89.537 1.750 C 89.297 1.053,89.182 0.916,88.833 0.910 C 88.604 0.907,83.617 0.946,77.750 0.996 M273.833 44.666 C 273.237 44.742,271.700 44.924,270.417 45.071 C 267.430 45.413,267.271 45.449,266.798 45.885 C 266.581 46.086,265.976 46.614,265.454 47.060 C 263.800 48.471,263.761 48.586,263.690 52.250 C 263.613 56.214,263.805 57.532,264.518 57.954 C 264.786 58.112,265.183 58.511,265.401 58.840 C 265.751 59.369,265.958 59.481,267.190 59.815 C 267.956 60.022,269.096 60.374,269.723 60.597 C 271.049 61.070,274.746 61.327,280.333 61.335 C 287.834 61.346,289.412 61.548,291.769 62.802 C 293.637 63.796,293.873 64.163,293.972 66.220 C 294.115 69.222,293.838 69.688,291.167 70.934 L 289.417 71.750 276.860 71.833 L 264.304 71.917 263.985 72.310 C 263.389 73.047,263.680 74.897,264.452 75.271 C 264.929 75.502,286.252 75.556,288.500 75.332 C 293.345 74.848,294.719 74.535,295.843 73.654 C 296.169 73.399,296.742 73.067,297.116 72.918 C 298.263 72.459,298.567 71.368,298.637 67.464 C 298.719 62.868,298.297 61.514,296.480 60.545 C 296.005 60.291,295.328 59.832,294.977 59.524 C 294.436 59.051,294.053 58.905,292.478 58.572 C 291.456 58.355,290.236 58.055,289.768 57.905 C 289.062 57.679,287.608 57.608,281.250 57.489 C 270.854 57.296,270.250 57.217,268.956 55.879 C 267.718 54.601,267.654 50.959,268.855 50.169 C 269.066 50.030,269.653 49.609,270.161 49.233 C 271.576 48.186,271.801 48.143,276.516 48.024 C 279.639 47.945,280.852 47.859,281.043 47.700 C 281.732 47.128,281.480 45.092,280.675 44.726 C 280.293 44.552,275.088 44.506,273.833 44.666 M350.500 44.753 C 349.904 44.873,348.704 45.060,347.833 45.167 C 345.776 45.419,345.311 45.572,344.470 46.275 C 344.087 46.595,343.488 47.003,343.140 47.180 C 342.792 47.358,342.396 47.719,342.259 47.982 C 342.123 48.245,341.779 48.656,341.495 48.896 C 340.672 49.587,340.667 49.682,340.667 62.456 L 340.667 74.497 341.732 74.980 C 343.134 75.616,344.028 75.543,344.995 74.716 L 345.667 74.141 345.667 69.065 L 345.667 63.989 346.085 63.164 C 346.817 61.718,345.589 61.832,360.850 61.789 L 374.417 61.750 375.192 61.375 C 375.929 61.017,375.970 60.961,376.039 60.208 C 376.217 58.252,376.877 58.333,360.929 58.333 C 348.030 58.332,347.566 58.321,347.055 58.010 C 344.953 56.728,345.168 50.679,347.358 49.500 C 347.784 49.271,348.313 48.953,348.534 48.793 C 349.199 48.314,350.545 48.151,354.852 48.029 C 359.439 47.898,359.419 47.904,359.594 46.734 C 359.760 45.627,359.466 45.076,358.538 44.760 C 357.559 44.427,352.130 44.422,350.500 44.753 M384.292 44.680 C 383.695 45.027,383.500 45.743,383.500 47.582 C 383.500 50.316,383.208 50.717,380.470 51.746 L 379.083 52.266 379.107 53.149 C 379.138 54.254,379.128 54.246,380.925 54.764 C 383.610 55.539,383.500 55.064,383.500 65.912 L 383.500 74.308 383.913 74.798 C 384.655 75.680,386.980 75.476,387.599 74.474 C 387.667 74.365,387.709 70.482,387.692 65.846 C 387.650 53.881,387.093 54.953,393.411 54.833 C 398.513 54.736,398.500 54.740,398.500 53.300 C 398.500 51.670,397.918 51.500,392.341 51.500 L 389.063 51.500 388.547 50.995 C 387.833 50.297,387.600 49.223,387.751 47.322 C 387.854 46.021,387.831 45.774,387.582 45.498 C 386.834 44.672,385.062 44.231,384.292 44.680 M312.750 51.333 C 312.383 51.408,311.295 51.617,310.332 51.799 C 308.517 52.141,307.463 52.497,306.983 52.932 C 306.830 53.070,306.177 53.437,305.532 53.746 C 304.225 54.372,304.206 54.397,303.472 56.452 L 302.949 57.917 302.949 63.333 L 302.948 68.750 303.393 70.067 C 304.051 72.016,304.347 72.406,305.635 73.024 C 306.248 73.319,306.938 73.727,307.167 73.932 C 309.566 76.077,330.082 76.051,332.500 73.900 C 332.729 73.696,333.286 73.354,333.737 73.139 C 334.288 72.878,334.664 72.558,334.878 72.167 C 335.054 71.846,335.383 71.433,335.608 71.250 C 336.256 70.722,336.325 69.961,336.325 63.333 C 336.325 56.527,336.288 56.154,335.520 55.221 C 335.234 54.874,335.000 54.508,335.000 54.408 C 335.000 54.177,334.289 53.500,334.047 53.500 C 333.947 53.500,333.559 53.244,333.184 52.931 C 332.492 52.353,332.438 52.336,328.750 51.549 C 327.283 51.236,314.110 51.058,312.750 51.333 M327.108 54.825 C 328.585 54.995,329.066 55.178,330.583 56.143 C 332.066 57.087,332.027 56.905,332.057 62.972 C 332.089 69.449,332.094 69.430,330.185 70.385 C 329.532 70.711,328.773 71.139,328.497 71.335 C 327.712 71.895,326.381 71.993,319.583 71.995 C 312.410 71.998,311.531 71.912,310.175 71.075 C 309.662 70.759,309.161 70.500,309.061 70.500 C 308.640 70.500,307.998 69.762,307.508 68.716 L 306.985 67.597 307.034 63.174 L 307.083 58.750 307.618 57.667 L 308.152 56.583 309.834 55.774 C 311.137 55.147,311.786 54.936,312.716 54.838 C 314.477 54.653,325.524 54.643,327.108 54.825 " stroke="none" fill="#000000" fill-rule="evenodd"></path><path id="path1" d="M52.339 0.401 C 52.245 0.650,52.009 0.838,51.718 0.896 C 50.546 1.129,49.137 1.316,47.833 1.410 C 45.976 1.544,44.790 1.784,43.667 2.251 C 43.108 2.484,41.626 2.800,39.872 3.060 C 38.158 3.314,36.675 3.628,36.205 3.837 C 35.772 4.029,34.554 4.411,33.500 4.685 C 32.446 4.960,31.310 5.364,30.976 5.583 C 30.641 5.803,29.966 6.105,29.476 6.256 C 27.945 6.727,27.602 6.868,26.972 7.287 C 26.636 7.510,25.847 7.825,25.219 7.986 C 23.926 8.319,23.340 8.593,23.050 9.001 C 22.940 9.156,22.393 9.449,21.834 9.653 C 21.275 9.857,20.573 10.239,20.272 10.503 C 19.972 10.767,19.307 11.139,18.794 11.331 C 18.282 11.523,17.575 11.908,17.223 12.188 C 16.872 12.467,16.203 12.876,15.738 13.096 C 15.272 13.317,14.797 13.673,14.682 13.889 C 14.566 14.104,14.159 14.435,13.778 14.625 C 12.882 15.068,10.914 16.584,10.259 17.333 C 9.979 17.654,9.029 18.629,8.147 19.500 C 7.265 20.371,6.375 21.417,6.168 21.826 C 5.961 22.234,5.624 22.700,5.419 22.862 C 5.213 23.023,4.948 23.402,4.830 23.703 C 4.712 24.004,4.334 24.550,3.991 24.917 C 3.647 25.283,3.196 25.996,2.989 26.500 C 2.781 27.004,2.483 27.567,2.327 27.750 C 1.847 28.311,1.658 28.794,1.409 30.099 C 1.109 31.664,0.933 32.000,0.411 32.000 L 0.000 32.000 0.000 33.833 C 0.000 37.210,1.331 35.928,2.163 31.750 C 2.272 31.200,2.646 30.188,2.994 29.500 C 3.342 28.813,3.679 28.008,3.743 27.711 C 3.806 27.415,4.158 26.815,4.524 26.378 C 4.890 25.941,5.369 25.236,5.587 24.812 C 5.806 24.388,6.104 23.996,6.251 23.940 C 6.397 23.883,6.691 23.442,6.905 22.959 C 7.182 22.332,7.719 21.671,8.772 20.657 C 9.585 19.874,10.678 18.772,11.202 18.207 C 11.725 17.642,12.438 17.035,12.785 16.858 C 13.132 16.681,13.567 16.370,13.750 16.167 C 13.933 15.964,14.363 15.655,14.706 15.480 C 15.048 15.305,15.455 14.969,15.610 14.732 C 15.776 14.479,16.467 14.029,17.289 13.638 C 18.058 13.273,18.726 12.872,18.774 12.746 C 18.823 12.621,19.389 12.317,20.033 12.071 C 20.678 11.824,21.444 11.413,21.736 11.157 C 22.028 10.900,22.673 10.536,23.170 10.348 C 23.666 10.159,24.386 9.780,24.768 9.505 C 25.209 9.188,25.954 8.891,26.803 8.693 C 27.599 8.508,28.451 8.177,28.906 7.875 C 29.326 7.597,30.288 7.205,31.043 7.004 C 31.799 6.803,32.822 6.412,33.318 6.136 C 33.970 5.773,34.800 5.528,36.318 5.250 C 37.472 5.039,38.792 4.718,39.250 4.536 C 40.276 4.130,41.348 3.908,43.858 3.584 C 44.925 3.446,46.275 3.189,46.858 3.012 C 48.285 2.580,50.763 2.211,53.583 2.011 C 58.497 1.662,61.826 1.500,63.833 1.510 C 65.258 1.518,66.177 1.441,66.741 1.267 C 67.440 1.052,69.210 1.009,78.407 0.989 L 89.250 0.964 89.537 1.774 C 89.918 2.846,89.912 23.920,89.531 24.379 C 89.336 24.615,87.678 24.650,73.781 24.716 C 57.671 24.792,56.515 24.840,54.250 25.519 C 53.608 25.712,52.408 25.974,51.583 26.101 C 50.758 26.229,49.384 26.441,48.530 26.573 C 47.675 26.705,46.676 26.968,46.311 27.159 C 45.945 27.350,44.732 27.698,43.615 27.933 C 42.128 28.245,41.270 28.530,40.417 28.993 C 39.775 29.340,39.058 29.670,38.823 29.724 C 38.589 29.779,38.139 30.013,37.823 30.245 C 37.508 30.476,36.700 30.930,36.028 31.252 C 33.571 32.429,29.667 36.295,29.667 37.550 C 29.667 37.676,29.362 38.386,28.990 39.127 C 28.037 41.025,28.003 41.732,28.009 59.583 C 28.013 70.147,27.959 74.908,27.832 75.269 C 27.574 76.005,27.733 75.997,12.958 75.999 L 0.000 76.000 0.000 76.500 L 0.000 77.000 13.892 77.000 L 27.784 77.000 28.343 76.623 C 29.161 76.072,29.132 76.678,29.150 59.886 C 29.168 42.930,29.100 44.239,30.189 39.833 C 30.647 37.982,30.776 37.672,31.352 37.045 C 31.708 36.658,32.000 36.252,32.000 36.144 C 32.000 35.871,34.311 33.667,34.598 33.667 C 34.727 33.667,35.126 33.402,35.484 33.078 C 35.842 32.754,36.610 32.296,37.191 32.061 C 37.771 31.825,38.475 31.430,38.756 31.183 C 39.047 30.928,39.822 30.570,40.555 30.352 C 41.264 30.142,42.322 29.721,42.907 29.415 C 43.572 29.069,44.336 28.820,44.944 28.752 C 46.949 28.527,48.947 28.113,49.861 27.733 C 50.905 27.299,51.855 27.138,55.667 26.747 C 57.087 26.601,58.737 26.360,59.333 26.211 C 60.281 25.975,62.244 25.934,74.975 25.880 C 90.968 25.814,90.044 25.877,90.592 24.817 C 90.848 24.322,90.966 3.322,90.726 1.024 L 90.619 -0.000 71.555 -0.000 L 52.492 0.000 52.339 0.401 M270.925 43.364 C 269.941 43.465,269.062 43.676,268.342 43.983 C 267.741 44.239,266.912 44.574,266.500 44.728 C 266.029 44.903,265.281 45.455,264.488 46.212 L 263.226 47.417 262.738 49.250 C 261.462 54.043,262.905 59.839,265.518 60.420 C 265.757 60.473,266.346 60.770,266.827 61.079 C 268.165 61.941,268.593 61.986,279.583 62.413 C 285.505 62.643,287.923 62.915,290.867 63.681 C 292.279 64.049,293.000 65.103,293.000 66.800 C 293.000 68.903,292.093 69.662,289.197 69.986 C 288.218 70.096,287.229 70.226,287.000 70.276 C 286.771 70.326,281.558 70.416,275.417 70.475 L 264.250 70.583 263.692 71.000 C 262.548 71.854,262.210 73.499,262.833 75.167 C 263.524 77.014,262.033 76.851,277.738 76.797 L 291.417 76.750 293.000 76.136 C 293.871 75.798,294.957 75.427,295.414 75.311 C 295.940 75.179,296.491 74.877,296.914 74.489 C 297.282 74.152,297.752 73.825,297.957 73.761 C 298.443 73.610,299.970 71.580,300.094 70.919 C 300.386 69.361,300.088 62.696,299.705 62.220 C 299.497 61.962,299.102 61.402,298.826 60.976 C 298.533 60.522,298.079 60.084,297.729 59.918 C 297.401 59.762,296.859 59.390,296.524 59.091 C 295.777 58.423,295.383 58.212,294.279 57.888 C 293.805 57.749,293.163 57.480,292.854 57.291 C 291.608 56.529,290.934 56.475,281.083 56.338 C 270.615 56.192,271.246 56.267,270.034 55.026 C 268.606 53.563,268.933 51.213,270.680 50.394 C 273.236 49.195,274.247 49.009,278.250 49.002 C 281.581 48.996,282.182 48.710,282.741 46.865 L 283.038 45.884 282.402 44.778 C 281.466 43.152,281.504 43.162,276.558 43.189 C 274.280 43.201,271.745 43.280,270.925 43.364 M349.007 43.357 C 348.415 43.444,347.590 43.668,347.173 43.854 C 346.757 44.040,345.819 44.382,345.089 44.615 C 344.131 44.920,343.620 45.189,343.255 45.581 C 342.977 45.880,342.503 46.250,342.201 46.404 C 341.899 46.557,341.524 46.893,341.367 47.151 C 341.211 47.408,340.842 47.822,340.546 48.070 C 339.669 48.808,339.669 48.821,339.668 62.182 L 339.667 74.614 340.049 75.349 C 341.018 77.211,344.520 77.475,346.115 75.806 C 346.973 74.908,347.000 74.705,347.000 69.188 C 347.000 65.026,347.044 64.003,347.237 63.740 C 347.466 63.426,347.855 63.414,361.195 63.333 L 374.917 63.250 375.711 62.699 C 377.977 61.125,377.565 57.543,375.036 56.841 C 374.634 56.729,369.705 56.668,360.968 56.668 L 347.519 56.667 347.259 56.296 C 346.765 55.591,346.968 50.995,347.508 50.662 C 348.538 50.025,352.885 49.166,355.092 49.163 C 358.345 49.159,359.468 48.977,360.016 48.368 C 360.874 47.412,360.770 44.827,359.830 43.775 L 359.361 43.250 354.722 43.224 C 352.171 43.210,349.599 43.270,349.007 43.357 M383.574 43.415 C 383.294 43.559,382.787 44.098,382.449 44.612 L 381.833 45.546 381.833 47.429 C 381.833 49.519,381.685 49.792,380.396 50.071 C 377.478 50.703,377.009 54.754,379.748 55.666 C 380.653 55.967,380.946 56.159,381.345 56.709 L 381.833 57.383 381.834 65.817 C 381.835 75.335,381.725 74.519,383.210 76.068 L 383.943 76.833 385.346 76.824 C 387.260 76.811,387.810 76.598,388.330 75.667 L 388.750 74.917 388.785 66.250 C 388.804 61.483,388.823 57.466,388.826 57.324 C 388.849 56.465,389.037 56.423,393.278 56.323 C 397.139 56.232,397.277 56.217,398.229 55.782 C 398.768 55.535,399.386 55.333,399.604 55.333 C 400.000 55.333,400.000 55.332,400.000 53.250 C 400.000 51.176,399.998 51.167,399.609 51.167 C 399.394 51.167,399.076 51.009,398.901 50.816 C 398.201 50.043,397.921 50.000,393.534 50.000 C 388.377 50.000,388.766 50.235,388.757 47.115 C 388.749 44.739,388.513 43.864,387.770 43.465 C 387.171 43.144,384.170 43.108,383.574 43.415 M62.167 43.519 C 57.109 43.964,53.476 46.368,52.002 50.244 C 51.635 51.210,51.766 68.929,52.146 69.632 C 52.330 69.972,52.663 70.626,52.887 71.086 C 53.374 72.086,54.478 73.231,55.408 73.703 C 55.779 73.891,56.383 74.257,56.750 74.517 C 57.117 74.777,58.092 75.177,58.917 75.405 C 59.742 75.634,60.867 75.993,61.417 76.202 C 62.406 76.578,62.511 76.583,71.371 76.634 C 80.794 76.688,81.377 76.653,83.333 75.928 C 83.929 75.707,84.929 75.409,85.555 75.266 C 86.597 75.029,87.526 74.530,89.610 73.089 C 90.306 72.608,91.457 70.641,91.661 69.583 C 91.796 68.879,91.838 65.798,91.802 59.167 C 91.744 48.708,91.872 49.971,90.643 47.721 C 89.413 45.469,86.251 43.887,82.220 43.505 C 80.104 43.304,64.480 43.315,62.167 43.519 M255.333 43.511 C 254.739 43.762,254.184 44.320,253.817 45.035 C 253.421 45.807,253.323 73.921,253.714 74.603 C 254.841 76.567,256.946 77.280,258.703 76.293 C 260.084 75.517,259.999 76.580,260.015 59.951 C 260.030 43.643,260.073 44.308,258.971 43.732 C 258.314 43.388,255.962 43.245,255.333 43.511 M116.870 43.860 C 115.352 44.125,114.101 45.242,113.736 46.659 C 113.518 47.505,113.595 47.753,114.350 48.621 C 114.607 48.917,114.864 49.442,114.922 49.788 C 114.980 50.134,115.047 50.492,115.072 50.583 C 115.097 50.675,115.015 51.041,114.892 51.396 C 114.486 52.559,114.576 74.367,114.990 75.279 C 115.946 77.385,119.472 77.236,120.439 75.049 L 120.833 74.157 120.833 63.335 C 120.833 52.898,120.821 52.482,120.499 51.665 C 120.029 50.471,120.185 49.654,121.068 48.694 C 123.113 46.473,120.320 43.257,116.870 43.860 M164.583 44.469 C 162.685 45.468,162.422 47.201,163.866 49.193 C 164.636 50.253,164.698 50.738,164.165 51.524 L 163.673 52.250 163.670 63.353 L 163.667 74.455 164.375 75.327 C 165.982 77.306,168.961 77.202,170.018 75.132 C 170.523 74.141,170.506 52.491,169.998 51.497 C 169.556 50.629,169.761 49.661,170.664 48.362 C 172.696 45.436,168.207 42.562,164.583 44.469 M83.500 44.729 C 86.657 45.283,87.598 45.573,87.942 46.099 C 88.087 46.320,88.487 46.659,88.831 46.852 C 89.377 47.159,89.562 47.444,90.270 49.060 L 91.083 50.917 91.083 59.833 C 91.083 67.858,91.055 68.808,90.802 69.333 C 90.647 69.654,90.413 70.184,90.281 70.512 C 89.753 71.826,89.201 72.465,88.046 73.099 C 87.425 73.440,86.760 73.859,86.568 74.030 C 85.013 75.419,68.470 76.400,63.152 75.418 C 58.904 74.635,58.426 74.512,57.745 74.032 C 57.370 73.768,56.722 73.422,56.305 73.262 C 54.680 72.641,53.411 70.870,52.919 68.532 C 52.576 66.906,52.780 51.273,53.158 50.167 C 54.459 46.362,56.103 45.489,64.250 44.280 C 66.436 43.955,81.032 44.295,83.500 44.729 M258.439 44.878 L 259.192 45.589 259.178 59.920 L 259.164 74.250 258.334 75.052 C 257.237 76.111,256.310 76.077,255.298 74.943 L 254.680 74.250 254.632 60.167 C 254.595 49.614,254.633 45.979,254.780 45.667 C 255.582 43.966,257.122 43.634,258.439 44.878 M280.675 44.726 C 281.480 45.092,281.732 47.128,281.043 47.700 C 280.852 47.859,279.639 47.945,276.516 48.024 C 271.801 48.143,271.576 48.186,270.161 49.233 C 269.653 49.609,269.066 50.030,268.855 50.169 C 267.654 50.959,267.718 54.601,268.956 55.879 C 270.250 57.217,270.854 57.296,281.250 57.489 C 287.608 57.608,289.062 57.679,289.768 57.905 C 290.236 58.055,291.456 58.355,292.478 58.572 C 294.053 58.905,294.436 59.051,294.977 59.524 C 295.328 59.832,296.005 60.291,296.480 60.545 C 298.297 61.514,298.719 62.868,298.637 67.464 C 298.567 71.368,298.263 72.459,297.116 72.918 C 296.742 73.067,296.169 73.399,295.843 73.654 C 294.719 74.535,293.345 74.848,288.500 75.332 C 286.252 75.556,264.929 75.502,264.452 75.271 C 263.680 74.897,263.389 73.047,263.985 72.310 L 264.304 71.917 276.860 71.833 L 289.417 71.750 291.167 70.934 C 293.838 69.688,294.115 69.222,293.972 66.220 C 293.873 64.163,293.637 63.796,291.769 62.802 C 289.412 61.548,287.834 61.346,280.333 61.335 C 274.746 61.327,271.049 61.070,269.723 60.597 C 269.096 60.374,267.956 60.022,267.190 59.815 C 265.958 59.481,265.751 59.369,265.401 58.840 C 265.183 58.511,264.786 58.112,264.518 57.954 C 263.805 57.532,263.613 56.214,263.690 52.250 C 263.761 48.586,263.800 48.471,265.454 47.060 C 265.976 46.614,266.581 46.086,266.798 45.885 C 267.271 45.449,267.430 45.413,270.417 45.071 C 271.700 44.924,273.237 44.742,273.833 44.666 C 275.088 44.506,280.293 44.552,280.675 44.726 M358.538 44.760 C 359.466 45.076,359.760 45.627,359.594 46.734 C 359.419 47.904,359.439 47.898,354.852 48.029 C 350.545 48.151,349.199 48.314,348.534 48.793 C 348.313 48.953,347.784 49.271,347.358 49.500 C 345.168 50.679,344.953 56.728,347.055 58.010 C 347.566 58.321,348.030 58.332,360.929 58.333 C 376.877 58.333,376.217 58.252,376.039 60.208 C 375.970 60.961,375.929 61.017,375.192 61.375 L 374.417 61.750 360.850 61.789 C 345.589 61.832,346.817 61.718,346.085 63.164 L 345.667 63.989 345.667 69.065 L 345.667 74.141 344.995 74.716 C 344.028 75.543,343.134 75.616,341.732 74.980 L 340.667 74.497 340.667 62.456 C 340.667 49.682,340.672 49.587,341.495 48.896 C 341.779 48.656,342.123 48.245,342.259 47.982 C 342.396 47.719,342.792 47.358,343.140 47.180 C 343.488 47.003,344.087 46.595,344.470 46.275 C 345.311 45.572,345.776 45.419,347.833 45.167 C 348.704 45.060,349.904 44.873,350.500 44.753 C 352.130 44.422,357.559 44.427,358.538 44.760 M386.641 44.840 C 387.811 45.449,387.886 45.616,387.751 47.322 C 387.600 49.223,387.833 50.297,388.547 50.995 L 389.063 51.500 392.341 51.500 C 397.918 51.500,398.500 51.670,398.500 53.300 C 398.500 54.740,398.513 54.736,393.411 54.833 C 387.093 54.953,387.650 53.881,387.692 65.846 C 387.709 70.482,387.667 74.365,387.599 74.474 C 386.980 75.476,384.655 75.680,383.913 74.798 L 383.500 74.308 383.500 65.912 C 383.500 55.064,383.610 55.539,380.925 54.764 C 379.128 54.246,379.138 54.254,379.107 53.149 L 379.083 52.266 380.470 51.746 C 383.208 50.717,383.500 50.316,383.500 47.582 C 383.500 44.675,384.556 43.753,386.641 44.840 M119.951 45.438 C 120.484 45.743,120.694 45.989,120.825 46.461 C 121.088 47.406,121.066 47.466,120.102 48.389 C 119.093 49.357,118.707 50.557,119.217 51.140 C 120.019 52.055,120.000 51.763,120.000 63.384 L 120.000 74.284 119.625 74.835 C 119.021 75.722,117.910 75.966,116.720 75.473 C 115.241 74.860,115.333 75.667,115.333 63.352 C 115.333 51.964,115.340 51.861,116.106 51.229 C 116.676 50.760,116.549 50.180,115.552 48.698 C 113.641 45.860,116.710 43.585,119.951 45.438 M169.460 45.340 C 169.879 45.609,169.933 45.739,170.091 46.862 C 170.200 47.634,170.193 47.648,169.284 48.557 C 167.931 49.909,167.841 50.621,168.898 51.591 L 169.667 52.297 169.667 63.243 C 169.667 75.354,169.748 74.568,168.420 75.317 C 167.190 76.011,166.369 75.915,165.458 74.969 L 164.833 74.319 164.839 63.368 L 164.844 52.417 165.254 51.750 C 165.961 50.603,165.707 49.240,164.665 48.582 C 163.304 47.723,163.376 45.992,164.800 45.347 C 165.753 44.915,168.794 44.910,169.460 45.340 M62.918 48.353 C 61.922 48.498,60.510 49.123,59.250 49.979 C 58.091 50.765,58.093 50.748,58.036 59.642 C 57.969 69.967,57.790 69.432,61.781 70.833 L 63.917 71.582 71.503 71.633 C 79.923 71.691,80.003 71.683,82.828 70.597 C 84.679 69.885,84.999 69.620,85.667 68.249 L 86.167 67.224 86.167 60.153 L 86.168 53.083 85.727 51.870 C 85.252 50.565,85.011 50.303,83.233 49.160 C 82.456 48.660,81.945 48.467,81.067 48.339 C 79.663 48.137,64.326 48.148,62.918 48.353 M79.500 48.990 C 80.707 49.104,81.180 49.249,82.700 49.973 L 84.483 50.823 84.825 51.929 C 85.287 53.423,85.357 66.723,84.909 67.795 C 83.946 70.098,79.791 70.965,70.556 70.791 C 62.826 70.645,59.722 69.871,58.892 67.883 C 58.547 67.058,58.566 53.232,58.914 52.062 C 59.340 50.625,61.820 49.267,64.500 49.003 C 66.206 48.835,77.746 48.825,79.500 48.990 M311.000 50.065 C 310.496 50.177,309.783 50.425,309.417 50.616 C 309.050 50.808,308.112 51.160,307.333 51.399 C 306.487 51.659,305.638 52.052,305.224 52.375 C 304.843 52.673,304.301 53.044,304.019 53.199 C 303.677 53.387,303.340 53.825,303.004 54.518 C 302.728 55.088,302.382 55.688,302.235 55.850 C 301.124 57.077,301.133 69.765,302.245 70.995 C 302.393 71.158,302.717 71.692,302.965 72.182 C 303.383 73.006,303.634 73.242,304.940 74.042 C 305.202 74.202,305.660 74.514,305.958 74.734 C 306.256 74.953,306.894 75.225,307.375 75.336 C 307.856 75.448,308.850 75.812,309.583 76.145 L 310.917 76.750 320.000 76.750 L 329.083 76.750 330.026 76.287 C 330.545 76.032,331.516 75.638,332.185 75.410 C 332.855 75.183,333.593 74.822,333.826 74.608 C 334.059 74.394,334.512 74.063,334.833 73.870 C 335.408 73.526,336.444 72.402,336.787 71.750 C 337.561 70.280,337.699 58.095,336.975 55.219 C 336.621 53.816,333.879 51.343,332.668 51.335 C 332.531 51.334,331.893 51.073,331.249 50.755 C 330.529 50.399,329.630 50.112,328.914 50.008 C 327.192 49.759,312.160 49.807,311.000 50.065 M104.333 50.174 C 102.885 50.304,99.213 51.399,98.307 51.971 C 94.462 54.396,94.673 53.612,94.664 65.465 L 94.656 74.719 95.037 75.484 C 95.555 76.528,95.936 76.688,97.775 76.631 C 100.691 76.540,100.667 76.623,100.667 66.867 C 100.667 57.342,100.602 57.613,103.155 56.396 C 104.399 55.803,104.453 55.793,107.000 55.711 C 110.742 55.590,111.431 55.251,111.675 53.417 C 112.060 50.515,110.111 49.654,104.333 50.174 M134.750 50.174 C 134.200 50.246,133.300 50.474,132.750 50.681 C 132.200 50.887,131.071 51.253,130.241 51.494 C 127.996 52.145,127.176 52.698,125.671 54.574 C 124.648 55.850,124.583 56.365,124.583 63.250 C 124.583 70.519,124.601 70.629,126.007 72.288 C 126.562 72.943,127.240 73.556,127.542 73.676 C 127.840 73.795,128.394 74.111,128.774 74.378 C 129.429 74.839,129.950 74.994,135.417 76.356 C 135.783 76.447,138.821 76.586,142.167 76.664 C 147.913 76.799,149.333 76.929,149.587 77.340 C 149.805 77.692,148.604 77.886,145.583 77.986 C 141.779 78.113,141.599 78.177,140.944 79.636 C 140.402 80.844,140.401 80.858,140.913 81.631 C 141.140 81.975,141.375 82.498,141.434 82.794 C 141.520 83.223,141.624 83.333,141.943 83.333 C 142.541 83.333,142.580 82.954,142.088 81.882 C 141.633 80.889,141.621 80.315,142.036 79.405 C 142.284 78.860,142.314 78.855,146.172 78.676 C 150.572 78.473,151.521 78.218,152.502 76.978 C 153.777 75.365,154.039 75.418,144.849 75.407 C 137.397 75.397,135.216 75.293,132.417 74.812 C 131.168 74.598,127.214 72.721,127.067 72.273 C 127.012 72.103,126.711 71.681,126.400 71.337 C 125.365 70.191,125.333 69.951,125.334 63.271 C 125.335 56.894,125.394 56.299,126.114 55.418 C 126.339 55.142,126.687 54.661,126.887 54.349 C 127.087 54.037,127.362 53.731,127.500 53.670 C 127.638 53.609,128.387 53.240,129.167 52.850 C 130.078 52.393,131.118 52.031,132.083 51.836 C 132.908 51.668,134.296 51.375,135.167 51.185 C 136.873 50.812,142.863 50.712,147.167 50.985 C 150.211 51.178,154.174 52.056,155.500 52.832 C 156.096 53.180,156.863 53.553,157.204 53.661 C 157.837 53.860,158.176 54.314,159.202 56.333 L 159.583 57.083 159.632 66.417 C 159.684 76.342,159.658 76.748,158.889 77.867 C 158.656 78.207,158.342 78.727,158.191 79.024 C 158.000 79.400,157.587 79.737,156.833 80.131 C 156.237 80.443,155.559 80.801,155.326 80.927 C 155.093 81.053,154.231 81.313,153.410 81.503 C 150.661 82.142,149.833 82.472,149.833 82.930 C 149.833 83.327,149.858 83.333,151.333 83.333 C 152.690 83.333,152.833 83.303,152.833 83.020 C 152.833 82.547,153.130 82.384,154.758 81.962 C 156.680 81.464,158.274 80.469,159.042 79.286 C 160.392 77.206,160.244 78.611,160.298 67.348 C 160.350 56.328,160.324 55.941,159.447 54.837 C 159.155 54.470,158.744 53.945,158.532 53.671 C 158.320 53.398,157.833 53.021,157.449 52.834 C 157.064 52.647,156.450 52.310,156.083 52.085 C 155.717 51.859,154.854 51.552,154.167 51.402 C 153.479 51.251,152.459 50.949,151.900 50.730 C 150.176 50.053,138.538 49.676,134.750 50.174 M182.792 50.181 C 182.082 50.256,181.144 50.477,180.709 50.671 C 180.273 50.866,179.346 51.207,178.648 51.429 C 177.468 51.805,176.911 52.132,175.553 53.245 C 175.058 53.651,174.435 55.125,174.107 56.667 C 174.059 56.896,174.003 60.946,173.983 65.667 L 173.947 74.250 174.482 75.147 C 175.437 76.748,176.995 77.183,178.743 76.337 C 180.126 75.667,180.073 76.045,180.167 66.234 C 180.260 56.468,180.125 57.312,181.721 56.527 C 183.452 55.675,183.805 55.647,192.275 55.701 L 200.106 55.750 201.344 56.391 C 203.157 57.328,203.000 56.416,203.000 65.997 C 203.000 76.576,202.983 76.516,206.137 76.640 C 207.893 76.709,208.289 76.477,209.007 74.957 L 209.474 73.971 209.480 65.801 C 209.487 57.126,209.458 56.738,208.647 54.569 C 208.375 53.843,208.130 53.527,207.444 53.020 C 206.971 52.670,206.480 52.260,206.353 52.108 C 206.227 51.955,205.494 51.639,204.723 51.404 C 203.953 51.169,203.006 50.837,202.619 50.665 C 201.232 50.052,187.244 49.710,182.792 50.181 M233.250 50.114 C 231.992 50.276,231.333 51.243,231.334 52.928 C 231.334 55.256,231.824 55.501,236.766 55.646 C 240.282 55.750,240.831 55.851,240.834 56.395 C 240.835 56.499,240.947 56.798,241.084 57.060 L 241.333 57.537 232.375 57.418 L 223.417 57.299 221.083 57.755 C 218.305 58.298,217.758 58.478,216.825 59.153 C 216.436 59.436,216.006 59.667,215.870 59.667 C 215.340 59.667,213.377 61.899,213.074 62.848 C 212.639 64.207,212.541 68.588,212.910 70.243 C 213.232 71.693,214.294 73.140,215.542 73.831 C 215.931 74.046,216.452 74.389,216.698 74.592 C 216.945 74.795,217.693 75.127,218.361 75.330 C 219.028 75.533,219.952 75.898,220.412 76.141 L 221.250 76.583 232.000 76.583 C 242.685 76.583,242.754 76.581,243.420 76.225 C 243.788 76.027,244.667 75.677,245.373 75.447 C 247.057 74.897,249.266 73.077,249.929 71.694 C 250.770 69.940,250.759 56.781,249.916 55.170 C 249.146 53.700,246.766 51.898,244.945 51.407 C 244.196 51.205,243.118 50.881,242.548 50.687 C 241.050 50.176,235.450 49.832,233.250 50.114 M110.007 51.606 C 110.872 52.415,110.949 52.659,110.667 53.677 C 110.420 54.566,109.726 54.831,107.619 54.842 C 103.804 54.862,102.618 55.209,100.811 56.833 C 99.846 57.701,99.769 58.570,99.906 66.956 C 100.040 75.146,100.049 75.091,98.458 75.592 C 97.286 75.962,95.989 75.617,95.580 74.827 C 95.307 74.299,95.215 57.603,95.477 56.249 C 95.649 55.367,96.681 54.024,97.604 53.482 C 98.011 53.243,98.519 52.884,98.732 52.684 C 98.945 52.483,99.374 52.250,99.685 52.164 C 100.878 51.837,104.984 51.133,106.417 51.010 C 109.218 50.769,109.089 50.748,110.007 51.606 M237.667 51.070 C 241.089 51.256,245.271 52.158,246.281 52.929 C 246.585 53.161,247.057 53.429,247.328 53.523 C 247.628 53.628,248.020 54.001,248.325 54.473 C 248.601 54.900,248.997 55.462,249.205 55.721 L 249.583 56.191 249.583 63.485 L 249.583 70.778 249.029 71.409 C 248.724 71.757,248.392 72.221,248.292 72.441 C 248.191 72.661,247.841 73.000,247.513 73.194 C 247.185 73.388,246.729 73.760,246.500 74.020 C 246.155 74.411,245.738 74.577,244.083 74.982 C 241.167 75.696,241.495 75.676,231.917 75.699 L 223.083 75.720 220.970 75.200 C 218.688 74.639,217.767 74.309,217.295 73.882 C 217.129 73.732,216.631 73.416,216.189 73.180 C 214.966 72.527,213.809 71.170,213.649 70.204 C 213.434 68.894,213.484 64.508,213.726 63.479 C 213.949 62.532,215.802 60.333,216.377 60.333 C 216.624 60.333,217.669 59.800,218.500 59.251 C 219.669 58.477,220.769 58.413,231.980 58.464 C 242.766 58.514,243.154 58.492,243.763 57.819 C 244.057 57.494,244.056 57.464,243.744 56.884 C 242.824 55.175,242.268 55.011,236.833 54.837 C 232.561 54.701,232.386 54.670,232.212 54.023 C 231.639 51.905,232.747 50.778,235.250 50.931 C 235.800 50.965,236.887 51.027,237.667 51.070 M201.851 51.567 C 204.968 52.205,205.150 52.280,206.696 53.574 C 208.494 55.079,208.420 54.567,208.399 65.275 C 208.378 75.981,208.471 75.477,206.480 75.734 C 205.612 75.846,204.231 75.189,203.881 74.498 C 203.721 74.181,203.671 72.105,203.669 65.700 C 203.666 56.214,203.746 56.788,202.296 55.789 C 200.956 54.866,200.114 54.799,190.743 54.871 C 182.006 54.938,182.257 54.910,180.788 55.966 C 179.520 56.876,179.592 56.320,179.500 65.825 L 179.417 74.400 178.475 75.116 C 177.213 76.075,176.257 76.019,175.475 74.939 L 174.984 74.262 175.043 65.089 C 175.104 55.539,175.191 54.364,175.869 53.953 C 175.987 53.882,176.496 53.568,177.000 53.255 C 178.700 52.202,178.899 52.123,181.002 51.660 C 182.156 51.406,183.284 51.164,183.508 51.122 C 183.733 51.080,187.329 51.035,191.500 51.023 L 199.083 51.001 201.851 51.567 M328.750 51.549 C 332.438 52.336,332.492 52.353,333.184 52.931 C 333.559 53.244,333.947 53.500,334.047 53.500 C 334.289 53.500,335.000 54.177,335.000 54.408 C 335.000 54.508,335.234 54.874,335.520 55.221 C 336.288 56.154,336.325 56.527,336.325 63.333 C 336.325 69.961,336.256 70.722,335.608 71.250 C 335.383 71.433,335.054 71.846,334.878 72.167 C 334.664 72.558,334.288 72.878,333.737 73.139 C 333.286 73.354,332.729 73.696,332.500 73.900 C 330.082 76.051,309.566 76.077,307.167 73.932 C 306.938 73.727,306.248 73.319,305.635 73.024 C 304.347 72.406,304.051 72.016,303.393 70.067 L 302.948 68.750 302.949 63.333 L 302.949 57.917 303.472 56.452 C 304.206 54.397,304.225 54.372,305.532 53.746 C 306.177 53.437,306.830 53.070,306.983 52.932 C 307.463 52.497,308.517 52.141,310.332 51.799 C 311.295 51.617,312.383 51.408,312.750 51.333 C 314.110 51.058,327.283 51.236,328.750 51.549 M312.716 54.838 C 311.786 54.936,311.137 55.147,309.834 55.774 L 308.152 56.583 307.618 57.667 L 307.083 58.750 307.034 63.174 L 306.985 67.597 307.508 68.716 C 307.998 69.762,308.640 70.500,309.061 70.500 C 309.161 70.500,309.662 70.759,310.175 71.075 C 311.531 71.912,312.410 71.998,319.583 71.995 C 326.381 71.993,327.712 71.895,328.497 71.335 C 328.773 71.139,329.532 70.711,330.185 70.385 C 332.094 69.430,332.089 69.449,332.057 62.972 C 332.025 56.576,332.064 56.674,329.025 55.244 C 327.882 54.707,316.630 54.426,312.716 54.838 M134.209 55.017 C 132.796 55.182,132.393 55.373,131.193 56.450 C 130.039 57.486,130.016 57.618,130.007 63.259 L 130.000 67.768 130.434 68.639 C 130.939 69.652,131.531 70.133,132.917 70.654 C 133.467 70.861,134.217 71.155,134.583 71.307 C 135.324 71.614,152.760 71.825,153.860 71.540 C 155.061 71.229,155.077 71.141,155.135 64.816 C 155.202 57.453,155.087 57.031,152.794 56.243 C 152.403 56.108,151.708 55.813,151.250 55.587 C 149.831 54.886,138.572 54.509,134.209 55.017 M149.679 56.111 C 150.098 56.305,150.886 56.559,151.429 56.676 C 152.876 56.987,153.240 57.223,153.801 58.219 L 154.307 59.115 154.350 64.276 C 154.396 69.887,154.432 69.639,153.458 70.344 L 152.783 70.833 146.359 70.833 C 135.593 70.833,132.496 70.350,131.479 68.511 L 130.966 67.583 130.986 63.333 C 131.015 57.126,131.346 56.467,134.750 55.823 C 136.458 55.500,148.874 55.739,149.679 56.111 M326.750 56.076 C 331.122 57.330,331.000 57.124,331.000 63.269 C 331.000 68.176,331.088 67.734,329.833 69.154 C 329.424 69.617,327.511 70.262,325.333 70.672 C 322.523 71.201,313.971 70.787,311.167 69.986 C 310.479 69.790,309.729 69.576,309.500 69.512 C 308.683 69.282,308.583 68.589,308.583 63.167 C 308.583 57.282,308.564 57.363,310.084 57.033 C 310.634 56.913,311.458 56.674,311.917 56.500 C 313.503 55.899,313.943 55.863,319.917 55.850 C 324.659 55.840,326.091 55.887,326.750 56.076 M221.843 62.739 C 218.858 63.609,218.005 64.749,218.236 67.561 C 218.396 69.501,219.343 70.542,221.833 71.514 C 222.629 71.825,239.656 71.948,241.415 71.656 C 243.689 71.278,244.888 69.477,244.975 66.309 C 245.046 63.731,244.880 63.260,243.677 62.605 L 242.872 62.167 233.311 62.175 L 223.750 62.183 221.843 62.739 M243.388 63.717 L 244.000 64.184 244.000 65.699 C 244.000 68.700,243.335 69.942,241.333 70.683 L 240.250 71.083 232.167 71.083 L 224.083 71.083 222.355 70.514 C 218.947 69.391,217.941 67.130,219.840 64.857 C 220.743 63.777,220.748 63.774,222.250 63.510 C 223.734 63.249,223.686 63.250,233.596 63.250 L 242.776 63.250 243.388 63.717 " stroke="none" fill="#7c7c7c" fill-rule="evenodd"></path><path id="path2" d="M0.000 16.000 L 0.000 32.000 0.411 32.000 C 0.933 32.000,1.109 31.664,1.409 30.099 C 1.658 28.794,1.847 28.311,2.327 27.750 C 2.483 27.567,2.781 27.004,2.989 26.500 C 3.196 25.996,3.647 25.283,3.991 24.917 C 4.334 24.550,4.712 24.004,4.830 23.703 C 4.948 23.402,5.213 23.023,5.419 22.862 C 5.624 22.700,5.961 22.234,6.168 21.826 C 6.375 21.417,7.265 20.371,8.147 19.500 C 9.029 18.629,9.979 17.654,10.259 17.333 C 10.914 16.584,12.882 15.068,13.778 14.625 C 14.159 14.435,14.566 14.104,14.682 13.889 C 14.797 13.673,15.272 13.317,15.738 13.096 C 16.203 12.876,16.872 12.467,17.223 12.188 C 17.575 11.908,18.282 11.523,18.794 11.331 C 19.307 11.139,19.972 10.767,20.272 10.503 C 20.573 10.239,21.275 9.857,21.834 9.653 C 22.393 9.449,22.940 9.156,23.050 9.001 C 23.340 8.593,23.926 8.319,25.219 7.986 C 25.847 7.825,26.636 7.505,26.972 7.275 C 27.308 7.046,27.996 6.733,28.500 6.580 C 29.919 6.150,30.370 5.966,31.000 5.560 C 31.321 5.354,32.446 4.960,33.500 4.685 C 34.554 4.411,35.772 4.029,36.205 3.837 C 36.675 3.628,38.158 3.314,39.872 3.060 C 41.626 2.800,43.108 2.484,43.667 2.251 C 44.789 1.784,45.975 1.544,47.833 1.409 C 50.883 1.188,52.242 0.867,52.381 0.336 C 52.469 0.000,52.454 0.000,26.234 0.000 L 0.000 0.000 0.000 16.000 M90.801 12.110 C 90.855 25.096,90.868 24.882,90.004 25.497 C 89.566 25.809,89.063 25.822,74.984 25.880 C 62.245 25.934,60.281 25.975,59.333 26.211 C 58.737 26.360,57.087 26.601,55.667 26.747 C 51.855 27.138,50.905 27.299,49.861 27.733 C 48.947 28.113,46.949 28.527,44.944 28.752 C 44.336 28.820,43.572 29.069,42.907 29.415 C 42.322 29.721,41.264 30.142,40.555 30.352 C 39.822 30.570,39.047 30.928,38.756 31.183 C 38.475 31.430,37.771 31.825,37.191 32.061 C 36.610 32.296,35.842 32.754,35.484 33.078 C 35.126 33.402,34.727 33.667,34.598 33.667 C 34.311 33.667,32.000 35.871,32.000 36.144 C 32.000 36.252,31.708 36.658,31.352 37.045 C 30.776 37.672,30.647 37.982,30.189 39.833 C 29.100 44.239,29.168 42.930,29.150 59.886 C 29.132 76.678,29.161 76.072,28.343 76.623 L 27.784 77.000 13.892 77.000 L 0.000 77.000 0.000 80.167 L 0.000 83.333 70.771 83.333 L 141.542 83.333 141.434 82.794 C 141.375 82.498,141.140 81.975,140.913 81.631 C 140.401 80.858,140.402 80.844,140.944 79.636 C 141.599 78.177,141.779 78.113,145.583 77.986 C 148.604 77.886,149.805 77.692,149.587 77.340 C 149.333 76.929,147.913 76.799,142.167 76.664 C 138.821 76.586,135.783 76.447,135.417 76.356 C 129.950 74.994,129.429 74.839,128.774 74.378 C 128.394 74.111,127.840 73.795,127.542 73.676 C 127.240 73.556,126.562 72.943,126.007 72.288 C 124.601 70.629,124.583 70.519,124.583 63.250 C 124.583 56.365,124.648 55.850,125.671 54.574 C 127.150 52.730,128.004 52.142,130.071 51.543 C 130.807 51.330,132.086 50.916,132.913 50.624 L 134.417 50.092 141.157 50.031 C 148.324 49.967,150.411 50.092,151.703 50.663 C 152.116 50.846,153.120 51.149,153.935 51.337 C 154.750 51.525,155.717 51.862,156.083 52.086 C 156.450 52.311,157.064 52.647,157.449 52.834 C 157.833 53.021,158.320 53.398,158.532 53.671 C 158.744 53.945,159.155 54.470,159.447 54.837 C 160.324 55.941,160.350 56.328,160.298 67.348 C 160.244 78.611,160.392 77.206,159.042 79.286 C 158.274 80.469,156.680 81.464,154.758 81.962 C 153.130 82.384,152.833 82.547,152.833 83.020 C 152.833 83.326,155.631 83.333,276.417 83.333 L 400.000 83.333 400.000 69.333 L 400.000 55.333 399.604 55.333 C 399.386 55.333,398.768 55.535,398.229 55.782 C 397.277 56.217,397.139 56.232,393.278 56.323 C 389.037 56.423,388.849 56.465,388.826 57.324 C 388.823 57.466,388.804 61.483,388.785 66.250 L 388.750 74.917 388.330 75.667 C 387.810 76.598,387.260 76.811,385.346 76.824 L 383.943 76.833 383.210 76.068 C 381.725 74.519,381.835 75.335,381.834 65.817 L 381.833 57.383 381.345 56.709 C 380.946 56.159,380.653 55.967,379.748 55.666 C 377.009 54.754,377.478 50.703,380.396 50.071 C 381.685 49.792,381.833 49.519,381.833 47.429 L 381.833 45.546 382.450 44.610 C 383.306 43.309,383.798 43.104,385.821 43.202 C 388.464 43.329,388.746 43.706,388.757 47.115 C 388.766 50.235,388.377 50.000,393.534 50.000 C 397.921 50.000,398.201 50.043,398.901 50.816 C 399.076 51.009,399.394 51.167,399.609 51.167 L 400.000 51.167 400.000 25.583 L 400.000 0.000 245.375 -0.000 L 90.750 -0.000 90.801 12.110 M281.233 43.420 C 281.594 43.591,281.971 44.029,282.402 44.778 L 283.038 45.884 282.741 46.865 C 282.182 48.710,281.581 48.996,278.250 49.002 C 274.247 49.009,273.236 49.195,270.680 50.394 C 268.933 51.213,268.606 53.563,270.034 55.026 C 271.246 56.267,270.615 56.192,281.083 56.338 C 290.934 56.475,291.608 56.529,292.854 57.291 C 293.163 57.480,293.805 57.749,294.279 57.888 C 295.383 58.212,295.777 58.423,296.524 59.091 C 296.859 59.390,297.401 59.762,297.729 59.918 C 298.079 60.084,298.533 60.522,298.826 60.976 C 299.102 61.402,299.497 61.962,299.705 62.220 C 300.088 62.696,300.386 69.361,300.094 70.919 C 299.970 71.580,298.443 73.610,297.957 73.761 C 297.752 73.825,297.282 74.152,296.914 74.489 C 296.491 74.877,295.940 75.179,295.414 75.311 C 294.957 75.427,293.871 75.798,293.000 76.136 L 291.417 76.750 277.738 76.797 C 262.033 76.851,263.524 77.014,262.833 75.167 C 262.210 73.499,262.548 71.854,263.692 71.000 L 264.250 70.583 275.417 70.475 C 281.558 70.416,286.771 70.326,287.000 70.276 C 287.229 70.226,288.218 70.096,289.197 69.986 C 292.093 69.662,293.000 68.903,293.000 66.800 C 293.000 65.103,292.279 64.049,290.867 63.681 C 287.923 62.915,285.505 62.643,279.583 62.413 C 268.593 61.986,268.165 61.941,266.827 61.079 C 266.346 60.770,265.757 60.473,265.518 60.420 C 262.905 59.839,261.462 54.043,262.738 49.250 L 263.226 47.417 264.488 46.212 C 265.281 45.455,266.029 44.903,266.500 44.728 C 266.912 44.574,267.741 44.239,268.342 43.983 C 270.169 43.204,279.883 42.779,281.233 43.420 M359.830 43.775 C 360.770 44.827,360.874 47.412,360.016 48.368 C 359.468 48.977,358.345 49.159,355.092 49.163 C 352.885 49.166,348.538 50.025,347.508 50.662 C 346.968 50.995,346.765 55.591,347.259 56.296 L 347.519 56.667 360.968 56.668 C 369.705 56.668,374.634 56.729,375.036 56.841 C 377.565 57.543,377.977 61.125,375.711 62.699 L 374.917 63.250 361.195 63.333 C 347.855 63.414,347.466 63.426,347.237 63.740 C 347.044 64.003,347.000 65.026,347.000 69.188 C 347.000 74.705,346.973 74.908,346.115 75.806 C 344.520 77.475,341.018 77.211,340.049 75.349 L 339.667 74.614 339.668 62.182 C 339.669 48.821,339.669 48.808,340.546 48.070 C 340.842 47.822,341.211 47.408,341.367 47.151 C 341.524 46.893,341.899 46.557,342.201 46.404 C 342.503 46.250,342.977 45.880,343.255 45.581 C 343.620 45.189,344.131 44.920,345.089 44.615 C 345.819 44.382,346.757 44.040,347.173 43.854 C 348.381 43.314,349.783 43.197,354.722 43.224 L 359.361 43.250 359.830 43.775 M82.220 43.505 C 86.251 43.887,89.413 45.469,90.643 47.721 C 91.872 49.971,91.744 48.708,91.802 59.167 C 91.838 65.798,91.796 68.879,91.661 69.583 C 91.457 70.641,90.306 72.608,89.610 73.089 C 87.526 74.530,86.597 75.029,85.555 75.266 C 84.929 75.409,83.929 75.707,83.333 75.928 C 81.377 76.653,80.794 76.688,71.371 76.634 C 62.511 76.583,62.406 76.578,61.417 76.202 C 60.867 75.993,59.742 75.634,58.917 75.405 C 58.092 75.177,57.117 74.777,56.750 74.517 C 56.383 74.257,55.779 73.891,55.408 73.703 C 54.478 73.231,53.374 72.086,52.887 71.086 C 52.663 70.626,52.330 69.972,52.146 69.632 C 51.766 68.929,51.635 51.210,52.002 50.244 C 53.476 46.368,57.109 43.964,62.167 43.519 C 64.480 43.315,80.104 43.304,82.220 43.505 M258.971 43.732 C 260.073 44.308,260.030 43.643,260.015 59.951 C 259.999 76.580,260.084 75.517,258.703 76.293 C 256.946 77.280,254.841 76.567,253.714 74.603 C 253.323 73.921,253.421 45.807,253.817 45.035 C 254.651 43.410,257.149 42.778,258.971 43.732 M120.051 44.481 C 121.979 45.585,122.385 47.264,121.068 48.694 C 120.185 49.654,120.029 50.471,120.499 51.665 C 120.821 52.482,120.833 52.898,120.833 63.335 L 120.833 74.157 120.439 75.049 C 119.472 77.236,115.946 77.385,114.990 75.279 C 114.576 74.367,114.486 52.559,114.892 51.396 C 115.015 51.041,115.097 50.675,115.072 50.583 C 115.047 50.492,114.980 50.134,114.922 49.788 C 114.864 49.442,114.607 48.917,114.350 48.621 C 113.595 47.753,113.518 47.505,113.736 46.659 C 114.402 44.076,117.484 43.013,120.051 44.481 M168.867 44.192 C 170.974 44.961,171.760 46.784,170.664 48.362 C 169.761 49.661,169.556 50.629,169.998 51.497 C 170.506 52.491,170.523 74.141,170.018 75.132 C 168.961 77.202,165.982 77.306,164.375 75.327 L 163.667 74.455 163.670 63.353 L 163.673 52.250 164.165 51.524 C 164.698 50.738,164.636 50.253,163.866 49.193 C 161.467 45.885,164.684 42.667,168.867 44.192 M64.500 49.003 C 61.820 49.267,59.340 50.625,58.914 52.062 C 58.566 53.232,58.547 67.058,58.892 67.883 C 59.722 69.871,62.826 70.645,70.556 70.791 C 79.791 70.965,83.946 70.098,84.909 67.795 C 85.357 66.723,85.287 53.423,84.825 51.929 L 84.483 50.823 82.700 49.973 C 81.180 49.249,80.707 49.104,79.500 48.990 C 77.746 48.825,66.206 48.835,64.500 49.003 M328.914 50.008 C 329.630 50.112,330.529 50.399,331.249 50.755 C 331.893 51.073,332.531 51.334,332.668 51.335 C 333.879 51.343,336.621 53.816,336.975 55.219 C 337.699 58.095,337.561 70.280,336.787 71.750 C 336.444 72.402,335.408 73.526,334.833 73.870 C 334.512 74.063,334.059 74.394,333.826 74.608 C 333.593 74.822,332.855 75.183,332.185 75.410 C 331.516 75.638,330.545 76.032,330.026 76.287 L 329.083 76.750 320.000 76.750 L 310.917 76.750 309.583 76.145 C 308.850 75.812,307.856 75.448,307.375 75.336 C 306.894 75.225,306.256 74.953,305.958 74.734 C 305.660 74.514,305.202 74.202,304.940 74.042 C 303.634 73.242,303.383 73.006,302.965 72.182 C 302.717 71.692,302.393 71.158,302.245 70.995 C 301.587 70.267,301.500 69.354,301.507 63.265 C 301.515 57.211,301.577 56.577,302.235 55.850 C 302.382 55.688,302.728 55.088,303.004 54.518 C 303.340 53.825,303.677 53.387,304.019 53.199 C 304.301 53.044,304.843 52.673,305.224 52.375 C 305.638 52.052,306.487 51.659,307.333 51.399 C 308.112 51.160,309.050 50.808,309.417 50.616 C 310.754 49.919,311.537 49.862,319.833 49.851 C 324.343 49.845,328.251 49.912,328.914 50.008 M109.880 50.230 C 111.141 50.771,111.857 52.043,111.675 53.417 C 111.431 55.251,110.742 55.590,107.000 55.711 C 104.453 55.793,104.399 55.803,103.155 56.396 C 100.602 57.613,100.667 57.342,100.667 66.867 C 100.667 76.623,100.691 76.540,97.775 76.631 C 95.936 76.688,95.555 76.528,95.037 75.484 L 94.656 74.719 94.664 65.465 C 94.673 53.612,94.462 54.396,98.307 51.971 C 99.213 51.399,102.885 50.304,104.333 50.174 C 106.792 49.953,109.293 49.978,109.880 50.230 M200.190 50.177 C 201.139 50.274,202.232 50.494,202.619 50.665 C 203.006 50.837,203.953 51.169,204.723 51.404 C 205.494 51.639,206.227 51.955,206.353 52.108 C 206.480 52.260,206.971 52.670,207.444 53.020 C 208.130 53.527,208.375 53.843,208.647 54.569 C 209.458 56.738,209.487 57.126,209.480 65.801 L 209.474 73.971 209.007 74.957 C 208.289 76.477,207.893 76.709,206.137 76.640 C 202.983 76.516,203.000 76.576,203.000 65.997 C 203.000 56.416,203.157 57.328,201.344 56.391 L 200.106 55.750 192.275 55.701 C 183.805 55.647,183.452 55.675,181.721 56.527 C 180.125 57.312,180.260 56.468,180.167 66.234 C 180.073 76.045,180.126 75.667,178.743 76.337 C 176.995 77.183,175.437 76.748,174.482 75.147 L 173.947 74.250 173.983 65.667 C 174.003 60.946,174.059 56.896,174.107 56.667 C 174.435 55.125,175.058 53.651,175.553 53.245 C 176.911 52.132,177.468 51.805,178.648 51.429 C 179.346 51.207,180.273 50.866,180.709 50.671 C 182.112 50.044,195.569 49.703,200.190 50.177 M239.215 50.169 C 240.740 50.279,241.862 50.453,242.548 50.687 C 243.118 50.881,244.196 51.205,244.945 51.407 C 246.766 51.898,249.146 53.700,249.916 55.170 C 250.759 56.781,250.770 69.940,249.929 71.694 C 249.266 73.077,247.057 74.897,245.373 75.447 C 244.667 75.677,243.788 76.027,243.420 76.225 C 242.754 76.581,242.685 76.583,232.000 76.583 L 221.250 76.583 220.412 76.141 C 219.952 75.898,219.028 75.533,218.361 75.330 C 217.693 75.127,216.945 74.795,216.698 74.592 C 216.452 74.389,215.931 74.046,215.542 73.831 C 214.294 73.140,213.232 71.693,212.910 70.243 C 212.541 68.588,212.639 64.207,213.074 62.848 C 213.377 61.899,215.340 59.667,215.870 59.667 C 216.006 59.667,216.436 59.436,216.825 59.153 C 217.758 58.478,218.305 58.298,221.083 57.755 L 223.417 57.299 232.375 57.418 L 241.333 57.537 241.084 57.060 C 240.947 56.798,240.835 56.499,240.834 56.395 C 240.831 55.851,240.282 55.750,236.766 55.646 C 232.693 55.527,232.069 55.387,231.625 54.500 C 230.999 53.247,231.437 50.840,232.377 50.366 C 233.125 49.990,235.699 49.915,239.215 50.169 M134.750 55.823 C 131.346 56.467,131.015 57.126,130.986 63.333 L 130.966 67.583 131.479 68.511 C 132.496 70.350,135.593 70.833,146.359 70.833 L 152.783 70.833 153.458 70.344 C 154.432 69.639,154.396 69.887,154.350 64.276 L 154.307 59.115 153.801 58.219 C 153.240 57.223,152.876 56.987,151.429 56.676 C 150.886 56.559,150.098 56.305,149.679 56.111 C 148.874 55.739,136.458 55.500,134.750 55.823 M313.333 56.024 C 313.012 56.112,312.375 56.326,311.917 56.500 C 311.458 56.674,310.634 56.913,310.084 57.033 C 308.564 57.363,308.583 57.282,308.583 63.167 C 308.583 68.589,308.683 69.282,309.500 69.512 C 309.729 69.576,310.479 69.790,311.167 69.986 C 313.971 70.787,322.523 71.201,325.333 70.672 C 327.511 70.262,329.424 69.617,329.833 69.154 C 331.088 67.734,331.000 68.176,331.000 63.269 C 331.000 57.124,331.122 57.330,326.750 56.076 C 325.766 55.794,314.331 55.749,313.333 56.024 M223.833 63.292 C 223.209 63.337,221.436 63.632,220.965 63.769 C 220.179 63.997,219.000 65.823,219.004 66.806 C 219.011 68.802,219.797 69.672,222.355 70.514 L 224.083 71.083 232.167 71.083 L 240.250 71.083 241.333 70.683 C 243.335 69.942,244.000 68.700,244.000 65.699 L 244.000 64.184 243.388 63.717 L 242.776 63.250 233.596 63.250 C 228.547 63.250,224.154 63.269,223.833 63.292 " stroke="none" fill="#ffffff" fill-rule="evenodd"></path><path id="path3" d="M64.250 44.280 C 56.103 45.489,54.459 46.362,53.158 50.167 C 52.780 51.273,52.576 66.906,52.919 68.532 C 53.411 70.870,54.680 72.641,56.305 73.262 C 56.722 73.422,57.370 73.768,57.745 74.032 C 58.426 74.512,58.904 74.635,63.152 75.418 C 68.470 76.400,85.013 75.419,86.568 74.030 C 86.760 73.859,87.425 73.440,88.046 73.099 C 89.201 72.465,89.753 71.826,90.281 70.512 C 90.413 70.184,90.647 69.654,90.802 69.333 C 91.055 68.808,91.083 67.858,91.083 59.833 L 91.083 50.917 90.270 49.060 C 89.562 47.444,89.377 47.159,88.831 46.852 C 88.487 46.659,88.087 46.320,87.942 46.099 C 87.598 45.573,86.657 45.283,83.500 44.729 C 81.032 44.295,66.436 43.955,64.250 44.280 M255.479 44.708 C 254.541 45.719,254.580 45.016,254.632 60.167 L 254.680 74.250 255.298 74.943 C 256.310 76.077,257.237 76.111,258.334 75.052 L 259.164 74.250 259.178 59.920 L 259.192 45.589 258.439 44.878 C 257.418 43.914,256.277 43.848,255.479 44.708 M116.533 44.990 C 114.772 45.280,114.343 46.903,115.552 48.698 C 116.549 50.180,116.676 50.760,116.106 51.229 C 115.340 51.861,115.333 51.964,115.333 63.352 C 115.333 75.667,115.241 74.860,116.720 75.473 C 117.910 75.966,119.021 75.722,119.625 74.835 L 120.000 74.284 120.000 63.384 C 120.000 51.763,120.019 52.055,119.217 51.140 C 118.707 50.557,119.093 49.357,120.102 48.389 C 121.066 47.466,121.088 47.406,120.825 46.461 C 120.509 45.322,118.564 44.655,116.533 44.990 M164.800 45.347 C 163.376 45.992,163.304 47.723,164.665 48.582 C 165.707 49.240,165.961 50.603,165.254 51.750 L 164.844 52.417 164.839 63.368 L 164.833 74.319 165.458 74.969 C 166.369 75.915,167.190 76.011,168.420 75.317 C 169.748 74.568,169.667 75.354,169.667 63.243 L 169.667 52.297 168.898 51.591 C 167.841 50.621,167.931 49.909,169.284 48.557 C 170.241 47.600,170.319 47.260,169.909 45.833 C 169.670 45.001,166.276 44.679,164.800 45.347 M81.067 48.339 C 81.945 48.467,82.456 48.660,83.233 49.160 C 85.011 50.303,85.252 50.565,85.727 51.870 L 86.168 53.083 86.167 60.153 L 86.167 67.224 85.667 68.249 C 84.999 69.620,84.679 69.885,82.828 70.597 C 80.003 71.683,79.923 71.691,71.503 71.633 L 63.917 71.582 61.781 70.833 C 57.790 69.432,57.969 69.967,58.036 59.642 C 58.093 50.748,58.091 50.765,59.250 49.979 C 60.510 49.123,61.922 48.498,62.918 48.353 C 64.326 48.148,79.663 48.137,81.067 48.339 M106.417 51.010 C 104.984 51.133,100.878 51.837,99.685 52.164 C 99.374 52.250,98.945 52.483,98.732 52.684 C 98.519 52.884,98.011 53.243,97.604 53.482 C 96.681 54.024,95.649 55.367,95.477 56.249 C 95.215 57.603,95.307 74.299,95.580 74.827 C 95.989 75.617,97.286 75.962,98.458 75.592 C 100.049 75.091,100.040 75.146,99.906 66.956 C 99.769 58.570,99.846 57.701,100.811 56.833 C 102.618 55.209,103.804 54.862,107.619 54.842 C 109.726 54.831,110.420 54.566,110.667 53.677 C 110.949 52.659,110.872 52.415,110.007 51.606 C 109.089 50.748,109.218 50.769,106.417 51.010 M135.167 51.177 C 134.387 51.351,133.022 51.644,132.133 51.827 C 131.049 52.049,130.059 52.390,129.133 52.861 C 128.372 53.247,127.638 53.612,127.500 53.672 C 127.362 53.732,127.087 54.037,126.887 54.349 C 126.687 54.661,126.339 55.142,126.114 55.418 C 125.394 56.299,125.335 56.894,125.334 63.271 C 125.333 69.951,125.365 70.191,126.400 71.337 C 126.711 71.681,127.012 72.103,127.067 72.273 C 127.214 72.721,131.168 74.598,132.417 74.812 C 135.216 75.293,137.397 75.397,144.849 75.407 C 154.039 75.418,153.777 75.365,152.502 76.978 C 151.521 78.218,150.572 78.473,146.172 78.676 C 142.314 78.855,142.284 78.860,142.036 79.405 C 141.621 80.315,141.633 80.889,142.088 81.882 C 142.332 82.412,142.489 82.956,142.437 83.090 C 142.357 83.299,142.874 83.333,146.089 83.333 L 149.833 83.333 149.833 82.930 C 149.833 82.472,150.661 82.142,153.410 81.503 C 154.231 81.313,155.093 81.053,155.326 80.927 C 155.559 80.801,156.237 80.443,156.833 80.131 C 157.587 79.737,158.000 79.400,158.191 79.024 C 158.342 78.727,158.656 78.207,158.889 77.867 C 159.658 76.748,159.684 76.342,159.632 66.417 L 159.583 57.083 159.202 56.333 C 158.176 54.314,157.837 53.860,157.204 53.661 C 156.863 53.553,156.096 53.180,155.500 52.832 C 154.174 52.056,150.211 51.178,147.167 50.985 C 143.125 50.728,136.708 50.831,135.167 51.177 M233.464 51.143 C 232.352 51.529,232.082 51.854,232.088 52.798 C 232.100 54.746,231.950 54.682,236.833 54.837 C 242.268 55.011,242.824 55.175,243.744 56.884 C 244.056 57.464,244.057 57.494,243.763 57.819 C 243.154 58.492,242.766 58.514,231.980 58.464 C 220.769 58.413,219.669 58.477,218.500 59.251 C 217.669 59.800,216.624 60.333,216.377 60.333 C 215.802 60.333,213.949 62.532,213.726 63.479 C 213.484 64.508,213.434 68.894,213.649 70.204 C 213.809 71.170,214.966 72.527,216.189 73.180 C 216.631 73.416,217.129 73.732,217.295 73.882 C 217.767 74.309,218.688 74.639,220.970 75.200 L 223.083 75.720 231.917 75.699 C 241.495 75.676,241.167 75.696,244.083 74.982 C 245.738 74.577,246.155 74.411,246.500 74.020 C 246.729 73.760,247.185 73.388,247.513 73.194 C 247.841 73.000,248.191 72.661,248.292 72.441 C 248.392 72.221,248.724 71.757,249.029 71.409 L 249.583 70.778 249.583 63.485 L 249.583 56.191 249.205 55.721 C 248.997 55.462,248.601 54.900,248.325 54.473 C 248.020 54.001,247.628 53.628,247.328 53.523 C 247.057 53.429,246.585 53.161,246.281 52.929 C 245.271 52.158,241.089 51.256,237.667 51.070 C 236.887 51.027,235.800 50.965,235.250 50.931 C 234.607 50.892,233.969 50.968,233.464 51.143 M183.508 51.122 C 183.284 51.164,182.156 51.406,181.002 51.660 C 178.899 52.123,178.700 52.202,177.000 53.255 C 176.496 53.568,175.987 53.882,175.869 53.953 C 175.191 54.364,175.104 55.539,175.043 65.089 L 174.984 74.262 175.475 74.939 C 176.257 76.019,177.213 76.075,178.475 75.116 L 179.417 74.400 179.500 65.825 C 179.592 56.320,179.520 56.876,180.788 55.966 C 182.257 54.910,182.006 54.938,190.743 54.871 C 200.114 54.799,200.956 54.866,202.296 55.789 C 203.746 56.788,203.666 56.214,203.669 65.700 C 203.671 72.105,203.721 74.181,203.881 74.498 C 204.231 75.189,205.612 75.846,206.480 75.734 C 208.471 75.477,208.378 75.981,208.399 65.275 C 208.420 54.567,208.494 55.079,206.696 53.574 C 205.150 52.280,204.968 52.205,201.851 51.567 L 199.083 51.001 191.500 51.023 C 187.329 51.035,183.733 51.080,183.508 51.122 M148.917 55.006 C 149.897 55.116,150.706 55.318,151.250 55.587 C 151.708 55.813,152.403 56.108,152.794 56.243 C 155.087 57.031,155.202 57.453,155.135 64.816 C 155.077 71.141,155.061 71.229,153.860 71.540 C 152.760 71.825,135.324 71.614,134.583 71.307 C 134.217 71.155,133.467 70.861,132.917 70.654 C 131.531 70.133,130.939 69.652,130.434 68.639 L 130.000 67.768 130.007 63.259 C 130.017 57.219,130.196 56.665,132.542 55.404 C 133.519 54.879,145.268 54.593,148.917 55.006 M243.677 62.605 C 245.797 63.759,245.571 68.368,243.278 70.742 C 242.230 71.827,241.864 71.860,231.332 71.796 C 221.450 71.737,222.098 71.809,220.035 70.538 C 218.594 69.651,218.379 69.296,218.236 67.561 C 218.005 64.749,218.858 63.609,221.843 62.739 L 223.750 62.183 233.311 62.175 L 242.872 62.167 243.677 62.605 " stroke="none" fill="#d50000" fill-rule="evenodd"></path></g></svg>